{"title":"Sherlock.Holmes.2.A.Game.Of.Shadows.2011.R6.XviD.Feel-Free","uid":7178561,"size":1116650810,"categoryP":"video","categoryS":"movies","magnet":"?xt=urn:btih:803be0091c0a49d260ef471da039a3e3683b51de&amp;dn=Sherlock.Holmes.2.A.Game.Of.Shadows.2011.R6.XviD.Feel-Free&amp;tr=udp%3A%2F%2Ftracker.openbittorrent.com%3A80&amp;tr=udp%3A%2F%2Fopen.demonii.com%3A1337&amp;tr=udp%3A%2F%2Ftracker.coppersurfer.tk%3A6969&amp;tr=udp%3A%2F%2Fexodus.desync.com%3A6969","seeders":0,"leechers":2,"uploader":".BONE.","files":9,"time":1334192641,"description":"Genre:Action | Adventure | Crime\nLanguage:English &lt;a href=&quot;\nhttp://www.imdb.com/title/tt1515091/&quot; rel=&quot;nofollow&quot; target=&quot;_NEW&quot;&gt;\nhttp://www.imdb.com/title/tt1515091/&lt;/a&gt;\nSource:Vobs Thanks!\n\nFormat : AVI\nFormat/Info : Audio Video Interleave\nFile size : 1.04 GiB\nDuration : 2h 0mn\nOverall bit rate : 1 230 Kbps\n\nVideo\nID : 0\nFormat : MPEG-4 Visual\nFormat profile : Advanced Simple@L5\nFormat settings, BVOP : 1\nFormat settings, QPel : No\nFormat settings, GMC : No warppoints\nFormat settings, Matrix : Default (H.263)\nCodec ID : XVID\nCodec ID/Hint : XviD\nDuration : 2h 0mn\nBit rate : 1 028 Kbps\nWidth : 640 pixels\nHeight : 264 pixels\nDisplay aspect ratio : 2.40:1\nFrame rate : 25.000 fps\nColor space : YUV\nChroma subsampling : 4:2:0\nBit depth : 8 bits\nScan type : Progressive\nCompression mode : Lossy\nBits/(Pixel*Frame) : 0.243\nStream size : 890 MiB (84%)\nWriting library : XviD 1.2.1 (UTC 2008-12-04)\n\nAudio\nID : 1\nFormat : AC-3\nFormat/Info : Audio Coding 3\nMode extension : CM (complete main)\nCodec ID : 2000\nDuration : 2h 0mn\nBit rate mode : Constant\nBit rate : 192 Kbps\nChannel(s) : 2 channels\nChannel positions : Front: L R\nSampling rate : 48.0 KHz\nBit depth : 16 bits\nCompression mode : Lossy\nStream size : 166 MiB (16%)\nAlignment : Aligned on interleaves\nInterleave, duration : 40 ms (1.00 video frame)\nInterleave, preload duration : 512 ms\n\n\nPlot:\nSherlock Holmes and his sidekick Dr. Watson join forces to outwit and bring down their fiercest adversary, Professor Moriarty.\n","torrent":{"xt":"urn:btih:803be0091c0a49d260ef471da039a3e3683b51de","amp;dn":"Sherlock.Holmes.2.A.Game.Of.Shadows.2011.R6.XviD.Feel-Free","amp;tr":["udp%3A%2F%2Ftracker.openbittorrent.com%3A80","udp%3A%2F%2Fopen.demonii.com%3A1337","udp%3A%2F%2Ftracker.coppersurfer.tk%3A6969","udp%3A%2F%2Fexodus.desync.com%3A6969"],"infoHash":"803be0091c0a49d260ef471da039a3e3683b51de","infoHashBuffer":{"type":"Buffer","data":[128,59,224,9,28,10,73,210,96,239,71,29,160,57,163,227,104,59,81,222]},"announce":[],"urlList":[]}}